<svg width="50" height="50" viewBox="0 0 50 50" fill="none" xmlns="http://www.w3.org/2000/svg">
<circle opacity="0.1" cx="23" cy="27" r="23" fill="#C62344"/>
<path fill-rule="evenodd" clip-rule="evenodd" d="M33.9572 3.83315C31.6224 1.49833 27.8359 1.49833 25.5011 3.83315C23.1663 6.16797 23.1663 9.95442 25.5011 12.2892C26.63 13.4182 28.1301 14.025 29.6703 14.0388C29.9609 14.8142 30.418 15.5414 31.0417 16.165C33.377 18.5004 37.1633 18.5004 39.4987 16.165C41.834 13.8297 41.834 10.0434 39.4987 7.70805C38.3434 6.55282 36.8332 5.96906 35.3191 5.95675C35.0257 5.16667 34.5674 4.44337 33.9572 3.83315ZM34.5856 8.52416C34.5864 8.52403 34.5872 8.5239 34.588 8.52377C34.6093 8.52026 34.6304 8.51623 34.6513 8.5117C35.6471 8.33266 36.7059 8.58948 37.5209 9.28215L37.7309 9.47581L37.9246 9.68579C39.0865 11.0531 39.022 13.1062 37.7309 14.3973C36.3719 15.7563 34.1685 15.7563 32.8094 14.3973C32.3101 13.8979 31.9942 13.2846 31.8618 12.6411C31.8589 12.5852 31.8521 12.5289 31.8414 12.4724C31.8346 12.4366 31.8264 12.4014 31.8167 12.3669C31.6893 11.3389 32.0202 10.265 32.8094 9.47581C33.3139 8.97132 33.9348 8.65411 34.5856 8.52416ZM32.8236 6.47817C32.6618 6.15644 32.4495 5.86096 32.1894 5.60091C30.8309 4.2424 28.6274 4.2424 27.2689 5.60091C25.9104 6.95942 25.9104 9.16297 27.2689 10.5215C27.8304 11.083 28.5483 11.4223 29.305 11.5138C29.4027 10.1272 29.9816 8.76814 31.0417 7.70805C31.5721 7.1776 32.1774 6.76764 32.8236 6.47817ZM20 20.417H16.6667C15.0563 20.417 13.75 21.7233 13.75 23.3337V33.3337C13.75 34.944 15.0563 36.2503 16.6667 36.2503H20C21.163 36.2503 22.1675 35.569 22.6358 34.5838H24.1802L24.5118 34.5939C24.8422 34.6143 25.1692 34.665 25.4893 34.7458L29.9089 35.8498L30.3372 35.9445C31.3412 36.1375 32.3748 36.1339 33.3816 35.9329L38.2653 34.9562L38.7211 34.8508C40.0763 34.495 41.3168 33.7849 42.3107 32.791L45.7657 29.336L45.9664 29.1196C47.2374 27.638 47.1705 25.4029 45.7657 23.9982C44.4377 22.6702 42.3348 22.5205 40.8321 23.6469L37.9163 25.8338L37.9164 25.8087V25.3037L37.9056 25.0172C37.7838 23.407 36.644 22.038 35.057 21.6424L31.2379 20.6876L30.8031 20.5904C30.221 20.4751 29.6298 20.417 29.0364 20.417C27.243 20.417 25.4899 20.9476 24.0004 21.9426L22.8497 22.7095C22.5637 21.3989 21.3961 20.417 20 20.417ZM20.4167 24.9696C20.4161 24.9908 20.4161 25.0121 20.4167 25.0333V33.3337C20.4167 33.5633 20.2296 33.7503 20 33.7503H16.6667C16.437 33.7503 16.25 33.5633 16.25 33.3337V23.3337C16.25 23.104 16.437 22.917 16.6667 22.917H20C20.2296 22.917 20.4167 23.104 20.4167 23.3337V24.9696ZM22.9167 25.6692L25.388 24.0221L25.7545 23.7944C26.7496 23.2207 27.8813 22.917 29.0364 22.917C29.5741 22.917 30.1093 22.9828 30.6323 23.1132L34.4516 24.068L34.6163 24.1212C35.0941 24.312 35.4164 24.7774 35.4164 25.3037V25.8087L35.4048 25.9818C35.3204 26.6044 34.7873 27.0837 34.1414 27.0837H31.6664L31.4968 27.0951C30.8866 27.1778 30.4164 27.7008 30.4164 28.3337C30.4164 28.9122 30.8094 29.3989 31.343 29.5414C31.4463 29.5691 31.5549 29.5838 31.6669 29.5838H35.5552L35.8849 29.5719C36.7604 29.509 37.6013 29.1961 38.3061 28.6664L42.3319 25.6471L42.4897 25.546C42.9785 25.281 43.5943 25.3624 43.998 25.766C44.4964 26.2644 44.4964 27.0707 43.9987 27.5675L40.543 31.0232L40.2836 31.2661C39.5722 31.8896 38.7066 32.3182 37.7747 32.5048L32.8917 33.4814L32.4963 33.5453C31.8348 33.6273 31.1636 33.5869 30.5155 33.4246L26.0982 32.3211L25.6263 32.2175C25.1512 32.1286 24.6671 32.0838 24.1802 32.0838H22.9167V25.6692Z" fill="#C62344"/>
</svg>
