<svg width="31" height="31" viewBox="0 0 31 31" fill="none" xmlns="http://www.w3.org/2000/svg">
<circle opacity="0.1" cx="14.5" cy="16.5" r="14" fill="#C62344"/>
<path fill-rule="evenodd" clip-rule="evenodd" d="M18.5 4.25C13.9437 4.25 10.25 7.94365 10.25 12.5C10.25 17.0563 13.9437 20.75 18.5 20.75C23.0563 20.75 26.75 17.0563 26.75 12.5C26.75 7.94365 23.0563 4.25 18.5 4.25ZM8.75 12.5C8.75 7.11522 13.1152 2.75 18.5 2.75C23.8848 2.75 28.25 7.11522 28.25 12.5C28.25 17.8848 23.8848 22.25 18.5 22.25C13.1152 22.25 8.75 17.8848 8.75 12.5ZM18.5 5.75C18.9142 5.75 19.25 6.08579 19.25 6.5V11.75H23C23.4142 11.75 23.75 12.0858 23.75 12.5C23.75 12.9142 23.4142 13.25 23 13.25H18.5C18.0858 13.25 17.75 12.9142 17.75 12.5V6.5C17.75 6.08579 18.0858 5.75 18.5 5.75Z" fill="#C62344"/>
</svg>
