<svg xmlns="http://www.w3.org/2000/svg" width="54" height="54" fill="currentColor" viewBox="0 0 54 54">
  <path fill="#C62344" fill-rule="evenodd" d="M27.186 16.188a3.094 3.094 0 1 0 0 6.187 3.094 3.094 0 0 0 0-6.188ZM22.03 19.28a5.156 5.156 0 1 1 10.313 0 5.156 5.156 0 0 1-10.313 0Zm-4.125 2.063a2.063 2.063 0 1 0 0 4.125 2.063 2.063 0 0 0 0-4.125Zm-4.125 2.062a4.125 4.125 0 1 1 8.25 0 4.125 4.125 0 0 1-8.25 0Zm22.688-2.062a2.063 2.063 0 1 0 0 4.125 2.063 2.063 0 0 0 0-4.125Zm-4.125 2.062a4.125 4.125 0 1 1 8.25 0 4.125 4.125 0 0 1-8.25 0Zm-5.157 5.157a7.212 7.212 0 0 0-7.218 7.181v.037c0 .095.002.188.005.282a15.398 15.398 0 0 0 7.213 1.78 15.4 15.4 0 0 0 7.214-1.78 8.84 8.84 0 0 0 .005-.282v-.037a7.213 7.213 0 0 0-7.219-7.181Zm9.225 8.25a1.031 1.031 0 0 1-.511.778 17.456 17.456 0 0 1-8.713 2.315c-3.17 0-6.146-.842-8.713-2.315a1.03 1.03 0 0 1-.512-.779h-.056c-1.56 0-3.06-.266-4.454-.758a1.031 1.031 0 0 1-.686-.89 5.156 5.156 0 0 1 7.156-5.16 9.265 9.265 0 0 1 7.264-3.504 9.266 9.266 0 0 1 7.265 3.504 5.156 5.156 0 0 1 7.158 5.16 1.031 1.031 0 0 1-.686.89 13.386 13.386 0 0 1-4.455.758h-.057Zm-.843-5.024c.436.915.727 1.912.843 2.96l.057.001c1.064 0 2.092-.146 3.066-.419a3.094 3.094 0 0 0-3.966-2.542Zm-16.762 0a3.094 3.094 0 0 0-3.965 2.542c.974.273 2.002.419 3.065.419h.056a9.225 9.225 0 0 1 .844-2.961Z" clip-rule="evenodd"/>
</svg>
