<svg width="50" height="50" viewBox="0 0 50 50" fill="none" xmlns="http://www.w3.org/2000/svg">
<circle opacity="0.1" cx="23" cy="27" r="23" fill="#C62344"/>
<path fill-rule="evenodd" clip-rule="evenodd" d="M30.8323 7.5C28.7612 7.5 27.0823 9.17893 27.0823 11.25C27.0823 13.3211 28.7612 15 30.8323 15C32.9033 15 34.5823 13.3211 34.5823 11.25C34.5823 9.17893 32.9033 7.5 30.8323 7.5ZM24.5823 11.25C24.5823 7.79822 27.3805 5 30.8323 5C34.2841 5 37.0823 7.79822 37.0823 11.25C37.0823 14.7018 34.2841 17.5 30.8323 17.5C27.3805 17.5 24.5823 14.7018 24.5823 11.25ZM19.5823 13.75C18.2016 13.75 17.0823 14.8693 17.0823 16.25C17.0823 17.6307 18.2016 18.75 19.5823 18.75C20.963 18.75 22.0823 17.6307 22.0823 16.25C22.0823 14.8693 20.963 13.75 19.5823 13.75ZM14.5823 16.25C14.5823 13.4886 16.8209 11.25 19.5823 11.25C22.3437 11.25 24.5823 13.4886 24.5823 16.25C24.5823 19.0114 22.3437 21.25 19.5823 21.25C16.8209 21.25 14.5823 19.0114 14.5823 16.25ZM42.0823 13.75C40.7016 13.75 39.5823 14.8693 39.5823 16.25C39.5823 17.6307 40.7016 18.75 42.0823 18.75C43.463 18.75 44.5823 17.6307 44.5823 16.25C44.5823 14.8693 43.463 13.75 42.0823 13.75ZM37.0823 16.25C37.0823 13.4886 39.3209 11.25 42.0823 11.25C44.8437 11.25 47.0823 13.4886 47.0823 16.25C47.0823 19.0114 44.8437 21.25 42.0823 21.25C39.3209 21.25 37.0823 19.0114 37.0823 16.25ZM30.8323 22.5C27.7343 22.5 25.0114 24.109 23.4548 26.5428C22.5935 27.8896 22.091 29.4871 22.0824 31.205L22.0823 31.25C22.0823 31.3643 22.0845 31.478 22.0888 31.5911C24.6983 32.9694 27.6725 33.75 30.8323 33.75C33.9921 33.75 36.9663 32.9694 39.5758 31.5911C39.5801 31.478 39.5823 31.3643 39.5823 31.25L39.5822 31.2049C39.5735 29.4874 39.0713 27.8902 38.2103 26.5437C36.6538 24.1094 33.9306 22.5 30.8323 22.5ZM42.0135 32.4999C41.9688 32.8951 41.7387 33.2456 41.3935 33.4436C38.2813 35.2294 34.6741 36.25 30.8323 36.25C26.9905 36.25 23.3833 35.2294 20.271 33.4436C19.9259 33.2456 19.6957 32.8951 19.651 32.4999C19.6285 32.5 19.606 32.5 19.5835 32.5C17.6929 32.5 15.8751 32.1766 14.1842 31.5811C13.7182 31.417 13.3926 30.9938 13.3534 30.5012C13.3402 30.3357 13.3335 30.1685 13.3335 30C13.3335 26.5482 16.1317 23.75 19.5835 23.75C20.4497 23.75 21.2763 23.9268 22.0278 24.2464C24.0874 21.6605 27.2656 20 30.8323 20C34.3992 20 37.5777 21.6608 39.6374 24.2471C40.3892 23.9271 41.2164 23.75 42.0832 23.75C45.535 23.75 48.3332 26.5482 48.3332 30C48.3332 30.1685 48.3265 30.3357 48.3134 30.5012C48.2742 30.9938 47.9485 31.417 47.4825 31.5811C45.7916 32.1766 43.9738 32.5 42.0832 32.5C42.06 32.5 42.0367 32.5 42.0135 32.4999ZM40.9911 26.4112C41.5199 27.5197 41.8728 28.7283 42.0135 29.9998C42.0367 29.9999 42.06 30 42.0832 30C43.3723 30 44.6184 29.8229 45.7992 29.4923C45.5514 27.6614 43.9821 26.25 42.0832 26.25C41.7027 26.25 41.3362 26.3064 40.9911 26.4112ZM20.6738 26.4106C20.3292 26.3062 19.9634 26.25 19.5835 26.25C17.6846 26.25 16.1154 27.6614 15.8676 29.4923C17.0484 29.8229 18.2944 30 19.5835 30C19.606 30 19.6285 29.9999 19.6511 29.9998C19.7918 28.7281 20.1448 27.5193 20.6738 26.4106Z" fill="#C62344"/>
</svg>
