<svg width="31" height="31" viewBox="0 0 31 31" fill="none" xmlns="http://www.w3.org/2000/svg">
<circle opacity="0.1" cx="14.5" cy="16.5" r="14" fill="#C62344"/>
<path fill-rule="evenodd" clip-rule="evenodd" d="M15.125 4.25C13.6753 4.25 12.5 5.42525 12.5 6.875C12.5 8.32475 13.6753 9.5 15.125 9.5C16.5747 9.5 17.75 8.32475 17.75 6.875C17.75 5.42525 16.5747 4.25 15.125 4.25ZM11 6.875C11 4.59683 12.8468 2.75 15.125 2.75C17.4032 2.75 19.25 4.59683 19.25 6.875C19.25 9.15317 17.4032 11 15.125 11C12.8468 11 11 9.15317 11 6.875ZM24.125 7.25C23.0895 7.25 22.25 8.08947 22.25 9.125C22.25 10.1605 23.0895 11 24.125 11C25.1605 11 26 10.1605 26 9.125C26 8.08947 25.1605 7.25 24.125 7.25ZM20.75 9.125C20.75 7.26104 22.261 5.75 24.125 5.75C25.989 5.75 27.5 7.26104 27.5 9.125C27.5 10.989 25.989 12.5 24.125 12.5C22.261 12.5 20.75 10.989 20.75 9.125ZM9.50889 19.306C11.1731 20.2261 13.0869 20.75 15.125 20.75C17.1631 20.75 19.0769 20.2261 20.7411 19.306C20.6929 18.4423 20.4502 17.6321 20.0565 16.9169C19.0985 15.1765 17.2486 14 15.125 14C12.1255 14 9.67427 16.3478 9.50889 19.306ZM21.7353 20.4662C19.7934 21.6003 17.534 22.25 15.125 22.25C12.6534 22.25 10.3393 21.5661 8.36406 20.3768C8.14256 20.2435 8.00537 20.0054 8.00103 19.7469C8.00034 19.7064 8 19.6657 8 19.625C8 15.69 11.19 12.5 15.125 12.5C17.44 12.5 19.4963 13.6043 20.7971 15.3126C21.6678 14.499 22.838 14 24.125 14C26.8173 14 29 16.1826 29 18.875C29 18.9432 28.9985 19.0111 28.9958 19.0787C28.9844 19.3536 28.8235 19.6002 28.5765 19.7213C27.2322 20.3803 25.7207 20.75 24.125 20.75C23.3025 20.75 22.5022 20.6518 21.7353 20.4662ZM22.2263 19.0405C22.8366 19.1776 23.4719 19.25 24.125 19.25C25.3187 19.25 26.4542 19.0079 27.4864 18.5706C27.3326 16.8493 25.8863 15.5 24.125 15.5C23.1189 15.5 22.2153 15.9397 21.5961 16.6397C21.9384 17.3805 22.1572 18.1898 22.2263 19.0405Z" fill="#C62344"/>
</svg>
