<svg width="50" height="50" viewBox="0 0 50 50" fill="none" xmlns="http://www.w3.org/2000/svg">
<circle opacity="0.1" cx="23" cy="27" r="23" fill="#C62344"/>
<path d="M24.1939 36.6641C23.4151 36.6632 22.6446 36.5044 21.9289 36.1971C21.2132 35.8898 20.5673 35.4406 20.0301 34.8764C18.943 33.7627 18.3342 32.2681 18.3335 30.7116V24.7415C18.3333 24.1986 18.441 23.6611 18.6505 23.1602C18.8599 22.6593 19.1669 22.2051 19.5536 21.8241L30.1227 11.2442C31.2099 10.165 32.6754 9.55303 34.2071 9.53848C35.7387 9.52394 37.2156 10.108 38.3231 11.1664C38.8789 11.7017 39.3215 12.3433 39.6247 13.053C39.9279 13.7627 40.0854 14.5261 40.0881 15.2979C40.0942 16.093 39.943 16.8814 39.6431 17.6178C39.3431 18.3541 38.9005 19.0238 38.3406 19.5883L36.5137 21.4173C36.4831 21.4477 36.4589 21.4838 36.4424 21.5236C36.4258 21.5635 36.4173 21.6061 36.4173 21.6493C36.4173 21.6924 36.4258 21.7351 36.4424 21.7749C36.4589 21.8147 36.4831 21.8508 36.5137 21.8813L41.1588 26.534C43.1494 28.525 43.4989 31.6459 41.9929 33.9596C41.5249 34.6778 40.9032 35.283 40.1726 35.7313C39.442 36.1795 38.6209 36.4596 37.7687 36.5513C36.8977 36.6512 36.0154 36.5559 35.1858 36.2722C34.3563 35.9886 33.6002 35.5237 32.9727 34.9114C32.8376 34.7795 32.7137 34.6683 32.5882 34.5539C32.4389 34.4188 32.2705 34.2646 32.0735 34.0771C31.6827 33.6989 31.3983 33.3859 31.2903 33.2683L31.2665 33.2413C31.0743 33.0316 30.7661 32.7058 30.3498 32.272C30.3146 32.2314 30.2685 32.2018 30.217 32.1866C30.1655 32.1713 30.1107 32.1712 30.0591 32.1862C30.0027 32.1981 29.9508 32.2258 29.9095 32.266C29.8682 32.3062 29.8391 32.3573 29.8256 32.4134L29.8161 32.4452C29.7922 32.5262 29.7859 32.5453 29.7811 32.5612C29.4122 33.7542 28.67 34.7971 27.6638 35.5363C26.6576 36.2755 25.4407 36.672 24.1923 36.6673L24.1939 36.6641ZM34.2642 13.2448C33.9826 13.2437 33.7037 13.2983 33.4433 13.4055C33.1829 13.5127 32.9463 13.6703 32.7471 13.8693L22.17 24.4492C22.1315 24.4875 22.101 24.533 22.0803 24.5832C22.0596 24.6334 22.049 24.6872 22.0493 24.7415V30.7116C22.0534 31.3054 22.2868 31.8748 22.7006 32.3006C22.8922 32.5054 23.1233 32.6693 23.38 32.7824C23.6366 32.8955 23.9135 32.9554 24.1939 32.9585C24.6519 32.9604 25.0984 32.8149 25.4672 32.5433C25.836 32.2717 26.1075 31.8885 26.2417 31.4505L26.2687 31.3599C26.4672 30.6828 26.8402 30.0699 27.3503 29.5826C27.8604 29.0953 28.4897 28.7508 29.1749 28.5835C29.8602 28.4162 30.5774 28.4322 31.2546 28.6297C31.9317 28.8272 32.5451 29.1994 33.033 29.7089C33.4715 30.1665 33.7876 30.5034 34.0005 30.7338L34.0354 30.7719C34.1292 30.8752 34.3532 31.1184 34.6566 31.4076C34.8155 31.5665 34.9521 31.6856 35.0839 31.8048C35.2158 31.924 35.3874 32.0813 35.5605 32.2513C35.7965 32.4798 36.0802 32.6531 36.3911 32.7589C36.702 32.8647 37.0325 32.9003 37.3588 32.8631C37.6665 32.832 37.9633 32.7322 38.2273 32.571C38.4912 32.4099 38.7156 32.1915 38.8839 31.9319C39.1515 31.4996 39.2629 30.9886 39.1996 30.484C39.1363 29.9795 38.9021 29.5119 38.536 29.1591L33.8877 24.5016C33.1315 23.7434 32.7068 22.7162 32.7068 21.6453C32.7068 20.5744 33.1315 19.5471 33.8877 18.789L35.7162 16.96C35.9288 16.7452 36.0967 16.4904 36.2101 16.2103C36.3235 15.9301 36.3803 15.6303 36.3771 15.3281C36.3768 15.0489 36.3204 14.7727 36.2112 14.5158C36.1021 14.259 35.9424 14.0267 35.7416 13.8328C35.3428 13.4544 34.8139 13.2439 34.2642 13.2448Z" fill="#C62344"/>
<path d="M20.189 26.5975C19.6969 26.5975 19.2249 26.402 18.877 26.0539C18.529 25.7059 18.3335 25.2338 18.3335 24.7415L18.3335 9.19119C18.3335 7.63776 18.9504 6.14796 20.0486 5.04952C21.1467 3.95108 22.6361 3.33398 24.1892 3.33398C25.7422 3.33398 27.2316 3.95108 28.3297 5.04952C29.4279 6.14796 30.0448 7.63776 30.0448 9.19119V14.9117C30.0448 15.404 29.8493 15.876 29.5014 16.2241C29.1534 16.5722 28.6814 16.7677 28.1893 16.7677C27.6972 16.7677 27.2252 16.5722 26.8773 16.2241C26.5293 15.876 26.3338 15.404 26.3338 14.9117V9.19119C26.3338 8.62224 26.1078 8.0766 25.7057 7.6743C25.3035 7.27199 24.758 7.04598 24.1892 7.04598C23.6204 7.04598 23.0749 7.27199 22.6727 7.6743C22.2705 8.0766 22.0445 8.62224 22.0445 9.19119V24.7415C22.0445 25.2338 21.849 25.7059 21.5011 26.0539C21.1531 26.402 20.6811 26.5975 20.189 26.5975Z" fill="#C62344"/>
</svg>
