<svg width="20" height="20" viewBox="0 0 20 20" fill="none" xmlns="http://www.w3.org/2000/svg">
<path d="M0 20L1.41356 14.8669C0.539637 13.3603 0.0811843 11.654 0.0859598 9.9097C0.0859598 4.44392 4.55587 0 10.043 0C12.7077 0 15.2101 1.03137 17.0869 2.90399C18.9685 4.77662 20.0048 7.26711 20 9.91445C20 15.3802 15.5301 19.8241 10.0382 19.8241H10.0334C8.36676 19.8241 6.72874 19.4059 5.2722 18.6169L0 20ZM5.52531 16.8251L5.82617 17.0057C7.09646 17.7567 8.553 18.1511 10.0382 18.1559H10.043C14.6036 18.1559 18.319 14.4629 18.319 9.9192C18.319 7.71863 17.4594 5.65114 15.8978 4.09221C14.3362 2.53327 12.254 1.67776 10.043 1.67776C5.48233 1.673 1.76695 5.36597 1.76695 9.9097C1.76695 11.4639 2.20153 12.98 3.03247 14.2918L3.22827 14.6055L2.39255 17.6426L5.52531 16.8251Z" fill="white"/>
<path d="M0 20L1.41356 14.8669C0.539637 13.3603 0.0811843 11.654 0.0859598 9.9097C0.0859598 4.44392 4.55587 0 10.043 0C12.7077 0 15.2101 1.03137 17.0869 2.90399C18.9685 4.77662 20.0048 7.26711 20 9.91445C20 15.3802 15.5301 19.8241 10.0382 19.8241H10.0334C8.36676 19.8241 6.72874 19.4059 5.2722 18.6169L0 20ZM5.52531 16.8251L5.82617 17.0057C7.09646 17.7567 8.553 18.1511 10.0382 18.1559H10.043C14.6036 18.1559 18.319 14.4629 18.319 9.9192C18.319 7.71863 17.4594 5.65114 15.8978 4.09221C14.3362 2.53327 12.254 1.67776 10.043 1.67776C5.48233 1.673 1.76695 5.36597 1.76695 9.9097C1.76695 11.4639 2.20153 12.98 3.03247 14.2918L3.22827 14.6055L2.39255 17.6426L5.52531 16.8251Z" fill="url(#paint0_linear_3998_23126)"/>
<path fill-rule="evenodd" clip-rule="evenodd" d="M7.55459 5.76649C7.36835 5.353 7.17255 5.34349 6.99586 5.33874C6.85259 5.33398 6.68545 5.33398 6.5183 5.33398C6.35116 5.33398 6.08373 5.39577 5.8545 5.64292C5.62527 5.89007 4.98535 6.48893 4.98535 7.71041C4.98535 8.92714 5.87838 10.1058 6.00254 10.2722C6.12671 10.4385 7.72651 13.0193 10.2528 14.0127C12.354 14.8397 12.7838 14.6733 13.2375 14.6306C13.6912 14.5878 14.7084 14.0317 14.9185 13.4519C15.1238 12.872 15.1238 12.3777 15.0618 12.2731C14.9997 12.1686 14.8325 12.1068 14.5842 11.9832C14.3359 11.8597 13.1133 11.2608 12.8841 11.1752C12.6549 11.0944 12.4877 11.0517 12.3254 11.2988C12.1582 11.546 11.6807 12.102 11.5374 12.2684C11.3941 12.4347 11.2461 12.4538 10.9978 12.3302C10.7494 12.2066 9.94714 11.9452 8.99681 11.0992C8.2566 10.4433 7.75517 9.63056 7.6119 9.38341C7.46863 9.13627 7.59757 9.00319 7.72174 8.87961C7.83158 8.7703 7.97007 8.58969 8.09423 8.4471C8.2184 8.30452 8.26137 8.19995 8.34256 8.0336C8.42374 7.86725 8.38554 7.72467 8.32346 7.60109C8.26138 7.48227 7.77427 6.25604 7.55459 5.76649Z" fill="white"/>
<defs>
<linearGradient id="paint0_linear_3998_23126" x1="10.0019" y1="19.9981" x2="10.0019" y2="0" gradientUnits="userSpaceOnUse">
<stop stop-color="#F9F9F9"/>
<stop offset="1" stop-color="white"/>
</linearGradient>
</defs>
</svg>
