<svg width="858" height="211" viewBox="0 0 858 211" fill="none" xmlns="http://www.w3.org/2000/svg">
<path d="M325.861 193.369H291.187L249.116 140.896V193.369H219.297V31.5571H249.116V128.644L288.876 77.789H324.474L278.011 134.885L325.861 193.369Z" fill="white"/>
<path d="M425.871 179.037C414.005 190.749 399.519 196.605 382.413 196.605C365.307 196.605 350.821 190.749 338.955 179.037C327.243 167.171 321.387 152.685 321.387 135.579C321.387 118.473 327.243 104.064 338.955 92.3521C350.821 80.4859 365.307 74.5528 382.413 74.5528C399.519 74.5528 414.005 80.4859 425.871 92.3521C437.737 104.064 443.67 118.473 443.67 135.579C443.67 152.685 437.737 167.171 425.871 179.037ZM359.99 158.464C366 164.474 373.475 167.479 382.413 167.479C391.351 167.479 398.825 164.474 404.835 158.464C410.845 152.454 413.85 144.825 413.85 135.579C413.85 126.333 410.845 118.704 404.835 112.694C398.825 106.684 391.351 103.679 382.413 103.679C373.475 103.679 366 106.684 359.99 112.694C354.134 118.704 351.206 126.333 351.206 135.579C351.206 144.825 354.134 152.454 359.99 158.464Z" fill="white"/>
<path d="M523.914 74.5528C536.55 74.5528 546.953 78.7907 555.12 87.2666C563.442 95.7424 567.603 107.455 567.603 122.403V193.369H537.783V126.101C537.783 118.396 535.703 112.54 531.542 108.533C527.381 104.372 521.833 102.292 514.898 102.292C507.193 102.292 501.029 104.681 496.406 109.458C491.782 114.235 489.471 121.401 489.471 130.956V193.369H459.651V31.5571H489.471V90.734C496.714 79.9465 508.195 74.5528 523.914 74.5528Z" fill="white"/>
<path d="M686.542 179.037C674.676 190.749 660.19 196.605 643.084 196.605C625.978 196.605 611.492 190.749 599.626 179.037C587.914 167.171 582.058 152.685 582.058 135.579C582.058 118.473 587.914 104.064 599.626 92.3521C611.492 80.4859 625.978 74.5528 643.084 74.5528C660.19 74.5528 674.676 80.4859 686.542 92.3521C698.408 104.064 704.341 118.473 704.341 135.579C704.341 152.685 698.408 167.171 686.542 179.037ZM620.662 158.464C626.672 164.474 634.146 167.479 643.084 167.479C652.022 167.479 659.496 164.474 665.507 158.464C671.517 152.454 674.522 144.825 674.522 135.579C674.522 126.333 671.517 118.704 665.507 112.694C659.496 106.684 652.022 103.679 643.084 103.679C634.146 103.679 626.672 106.684 620.662 112.694C614.805 118.704 611.877 126.333 611.877 135.579C611.877 144.825 614.805 152.454 620.662 158.464Z" fill="white"/>
<path d="M750.142 97.6688C752.916 90.2717 757.462 84.7238 763.781 81.0253C770.253 77.3267 777.419 75.4774 785.278 75.4774V108.764C776.186 107.686 768.018 109.535 760.775 114.312C753.687 119.09 750.142 127.026 750.142 138.122V193.369H720.323V77.789H750.142V97.6688Z" fill="white"/>
<path d="M858 106.453H831.879V154.534C831.879 158.541 832.88 161.469 834.884 163.318C836.887 165.167 839.815 166.246 843.668 166.554C847.521 166.708 852.298 166.631 858 166.323V193.369C837.504 195.681 823.018 193.754 814.542 187.59C806.22 181.426 802.059 170.407 802.059 154.534V106.453V77.789V54.4419L831.879 45.4267V77.789H858V106.453Z" fill="white"/>
<g clip-path="url(#clip0_201_793)">
<path d="M22.9843 147.09C19.8887 147.09 16.9199 145.861 14.7309 143.672C12.542 141.483 11.3123 138.514 11.3123 135.418V37.6245C11.3123 27.8553 15.1931 18.4861 22.101 11.5782C29.0089 4.67031 38.378 0.78949 48.1473 0.78949C57.9166 0.78949 67.2857 4.67031 74.1936 11.5782C81.1015 18.4861 84.9823 27.8553 84.9823 37.6245V73.6002C84.9823 76.6958 83.7526 79.6646 81.5637 81.8536C79.3747 84.0425 76.4059 85.2722 73.3102 85.2722C70.2146 85.2722 67.2458 84.0425 65.0568 81.8536C62.8679 79.6646 61.6382 76.6958 61.6382 73.6002V37.6245C61.6382 34.0465 60.2168 30.6151 57.6868 28.0851C55.1567 25.555 51.7253 24.1337 48.1473 24.1337C44.5693 24.1337 41.1378 25.555 38.6078 28.0851C36.0778 30.6151 34.6564 34.0465 34.6564 37.6245V135.418C34.6564 138.514 33.4267 141.483 31.2378 143.672C29.0488 145.861 26.08 147.09 22.9843 147.09Z" fill="white"/>
<path d="M84.9423 36.1254C84.9423 41.1154 84.969 46.112 85.0223 51.1153L61.6082 74.4195C61.6082 69.1231 61.6248 63.8267 61.6581 58.5302L84.9423 36.1254Z" fill="white"/>
<path d="M34.6765 86.6613V101.651L11.3423 135.908V109.086L34.6765 86.6613Z" fill="white"/>
<path d="M48.1773 210.397C43.2781 210.392 38.431 209.393 33.929 207.46C29.427 205.528 25.3638 202.703 21.985 199.155C15.1465 192.151 11.3164 182.752 11.3123 172.963V135.418C11.3108 132.004 11.9886 128.623 13.3063 125.473C14.6239 122.323 16.5549 119.467 18.9871 117.071L85.472 50.5357C92.3115 43.7488 101.53 39.9 111.165 39.8085C120.8 39.717 130.09 43.3902 137.057 50.046C140.553 53.4129 143.337 57.4476 145.244 61.9108C147.152 66.374 148.143 71.1748 148.16 76.0284C148.198 81.0287 147.247 85.9871 145.36 90.6179C143.473 95.2488 140.689 99.4604 137.167 103.01L125.675 114.512C125.483 114.704 125.33 114.931 125.226 115.181C125.122 115.432 125.068 115.7 125.068 115.971C125.068 116.242 125.122 116.511 125.226 116.761C125.33 117.012 125.483 117.239 125.675 117.43L154.895 146.691C167.416 159.212 169.615 178.839 160.141 193.389C157.198 197.906 153.287 201.712 148.691 204.531C144.095 207.35 138.93 209.111 133.569 209.688C128.09 210.316 122.54 209.717 117.322 207.933C112.103 206.149 107.348 203.226 103.4 199.375C102.55 198.545 101.771 197.846 100.982 197.126C100.042 196.277 98.9829 195.308 97.7437 194.128C95.2854 191.75 93.4966 189.781 92.817 189.042L92.6671 188.872C91.458 187.553 89.5193 185.504 86.901 182.776C86.6796 182.521 86.3897 182.334 86.0656 182.239C85.7415 182.143 85.3968 182.142 85.0723 182.236C84.7174 182.311 84.391 182.485 84.131 182.738C83.871 182.991 83.688 183.313 83.6033 183.665L83.5433 183.865C83.3934 184.375 83.3534 184.495 83.3235 184.595C81.0027 192.097 76.3338 198.656 70.0046 203.305C63.6753 207.954 56.0204 210.447 48.1673 210.417L48.1773 210.397ZM111.524 63.1172C109.753 63.1102 107.998 63.4536 106.36 64.1276C104.722 64.8016 103.234 65.7929 101.981 67.0445L35.4459 133.579C35.2038 133.82 35.012 134.107 34.8817 134.423C34.7513 134.738 34.6849 135.077 34.6864 135.418V172.963C34.7123 176.698 36.1802 180.278 38.7836 182.956C39.9889 184.244 41.4426 185.275 43.057 185.986C44.6715 186.697 46.4133 187.074 48.1773 187.093V187.093C51.0582 187.106 53.8666 186.19 56.1866 184.482C58.5066 182.774 60.2149 180.364 61.0586 177.61L61.2284 177.04C62.4772 172.782 64.8238 168.928 68.0326 165.863C71.2414 162.798 75.1996 160.632 79.5103 159.58C83.821 158.528 88.3324 158.628 92.5922 159.87C96.8519 161.112 100.71 163.453 103.78 166.657C106.538 169.535 108.526 171.654 109.865 173.103L110.085 173.342C110.675 173.992 112.084 175.521 113.993 177.34C114.992 178.339 115.851 179.089 116.681 179.838C117.51 180.588 118.59 181.577 119.679 182.646C121.163 184.083 122.948 185.173 124.904 185.838C126.86 186.503 128.938 186.727 130.991 186.494C132.927 186.298 134.794 185.67 136.454 184.657C138.114 183.643 139.526 182.27 140.585 180.638C142.268 177.918 142.969 174.705 142.57 171.532C142.172 168.359 140.699 165.418 138.396 163.199L109.156 133.909C104.399 129.141 101.728 122.681 101.728 115.946C101.728 109.211 104.399 102.751 109.156 97.9835L120.658 86.4813C121.995 85.1306 123.051 83.528 123.765 81.7663C124.479 80.0046 124.836 78.1189 124.815 76.2183C124.814 74.4629 124.459 72.7258 123.772 71.1104C123.085 69.4949 122.081 68.034 120.818 66.8146C118.309 64.4351 114.982 63.1112 111.524 63.1172Z" fill="white"/>
</g>
<defs>
<clipPath id="clip0_201_793">
<rect width="168.886" height="210.857" fill="white"/>
</clipPath>
</defs>
</svg>
